<?xml version="1.0" encoding="utf-8"?>
<!-- Generator: Adobe Illustrator 27.0.0, SVG Export Plug-In . SVG Version: 6.00 Build 0)  -->
<svg version="1.1" xmlns="http://www.w3.org/2000/svg" xmlns:xlink="http://www.w3.org/1999/xlink" x="0px" y="0px"
	 viewBox="0 0 1820 1024" style="enable-background:new 0 0 1820 1024;" xml:space="preserve">
<style type="text/css">
	.st0{display:none;}
	.st1{fill:none;stroke:#FFFDFD;stroke-width:4;stroke-miterlimit:10;}
	.st2{fill:none;stroke:#FFFFFF;stroke-width:8;stroke-miterlimit:10;}
	.st3{fill:#FFFFFF;}
	.st4{font-family:'MyriadPro-Regular';}
	.st5{font-size:36px;}
</style>
<g id="Capa_1" class="st0">
	
		<image style="display:inline;overflow:visible;opacity:0.32;" width="3872" height="2592" xlink:href="../../../../AR - stand  DEGSON 2009 - foto 04.jpg"  transform="matrix(0.3306 0 0 0.3306 270 83.5703)">
	</image>
</g>
<g id="Capa_2">
	<g>
		<line class="st1" x1="839.1" y1="307.3" x2="1345.2" y2="348.9"/>
		<path class="st1" d="M212.7,441.1"/>
		<line class="st1" x1="297.6" y1="441.1" x2="245.4" y2="429.9"/>
		<path class="st1" d="M289.2,718.9"/>
		<path class="st1" d="M239.7,727.9"/>
		<path class="st1" d="M353.3,401.4"/>
		<path class="st1" d="M383.7,742.6"/>
		<path class="st1" d="M471.6,397.2"/>
		<line class="st1" x1="472.5" y1="400.7" x2="708.7" y2="409.7"/>
		<path class="st1" d="M708.7,409.7l12.4-19.1l-296.9-9V211.8c0,0,0,0,0,0l296.9,19.1"/>
		<path class="st1" d="M839.1,824.6"/>
		<path class="st1" d="M839.1,824.6"/>
		<path class="st1" d="M1354.2,350.1"/>
		<polyline class="st1" points="1188.4,748.7 1235,795.4 1345.2,787.5 1345.2,787.5 1345.2,356.7 1345.2,156.6 839.1,79 		"/>
		<polyline class="st1" points="1187.2,658.8 1233.9,687.4 1344.1,681.8 		"/>
		<polyline class="st1" points="1187.2,515.9 1233.9,521 1344.1,519.9 		"/>
		<path class="st1" d="M925.1,339.3l262.7,22l45.4-21.4c0.6-0.3,1.4,0.2,1.4,0.9v454.6"/>
		<path class="st1" d="M1187.8,361.3"/>
		<path class="st1" d="M1248.5,792"/>
		<polyline class="st2" points="174.5,729.1 1159.7,945 1491.4,783 		"/>
		<polyline class="st1" points="212.7,437.8 212.7,721.2 244.2,727.9 298.2,716.7 297.6,441.1 349.8,428.2 		"/>
		<polyline class="st1" points="212.7,652.6 244.2,657.1 298.2,651.5 		"/>
		<polyline class="st1" points="212.7,527.7 244.2,527.7 297.1,526.6 		"/>
		<line class="st1" x1="245.4" y1="429.9" x2="244.2" y2="727.9"/>
		<path class="st1" d="M353.3,401.4"/>
		<path class="st1" d="M813.3,360.2l-48.4,32.6V755l-43.8,5.6c0,0-0.1,0-0.1,0V390.5l43.9,3"/>
		<line class="st1" x1="764.9" y1="675.1" x2="721.1" y2="677.3"/>
		<line class="st1" x1="764.9" y1="516.5" x2="721.1" y2="516.5"/>
		<polyline class="st1" points="813.3,325.6 813.3,801 839.1,824.6 920.6,817.9 924.6,314.1 		"/>
		<polyline class="st1" points="813.3,697.6 839.1,709.9 921.2,705.4 		"/>
		<polyline class="st1" points="813.3,516.5 839.1,512 923.5,513.1 		"/>
		<line class="st1" x1="1187.8" y1="361.3" x2="1187.8" y2="749.4"/>
		<polyline class="st1" points="424.2,381.5 350.9,400.2 212.7,437.8 212.7,316.3 424.2,211.7 		"/>
		<path class="st1" d="M350.9,400.2l0.2,346.9l73.1,19.1c1.1,0,48.4-14.6,48.4-14.6v-370"/>
		<polyline class="st1" points="351.1,675.1 424.2,686.3 472.5,676.2 		"/>
		<polyline class="st1" points="351.1,526.6 424.2,525.5 472.5,525.5 		"/>
		<line class="st1" x1="424.2" y1="765" x2="424.2" y2="380.4"/>
		<polyline class="st1" points="721.1,760.5 708.7,748.2 708.7,748.2 708.7,409.7 		"/>
		<polyline class="st1" points="839.1,824.6 839.1,307.3 721.1,390.5 721.1,230.8 839.1,79 839.1,79 839.1,307.4 		"/>
		<line class="st1" x1="708.7" y1="673.9" x2="721.1" y2="677.3"/>
		<line class="st1" x1="708.7" y1="516.5" x2="721.1" y2="516.5"/>
		<path class="st1" d="M1066.3,814.5"/>
		<path class="st1" d="M764.9,678.4"/>
		<path class="st1" d="M1645.5,766.2"/>
		<path class="st1" d="M839.1,824.6"/>
		<text transform="matrix(1 0 0 1 472.6665 896.1113)" class="st3 st4 st5">12M</text>
		<text transform="matrix(1 0 0 1 1383.6665 928.1113)" class="st3 st4 st5">5M</text>
		<text transform="matrix(1 0 0 1 1426.6665 405.1113)" class="st3 st4 st5">4M</text>
	</g>
</g>
</svg>
